<?xml version="1.0" encoding="utf-8"?>
<!-- Generator: Adobe Illustrator 26.2.1, SVG Export Plug-In . SVG Version: 6.00 Build 0)  -->
<svg version="1.1" id="Layer_1" xmlns="http://www.w3.org/2000/svg" xmlns:xlink="http://www.w3.org/1999/xlink" x="0px" y="0px"
	 viewBox="0 0 500 356.2" style="enable-background:new 0 0 500 356.2;" xml:space="preserve">
<style type="text/css">
	.st0{fill:#FFFFFF;}
	.st1{fill:#F07E11;}
	.st2{fill:#1D1D1B;}
</style>
<g id="Laag_1-2">
	<path class="st0" d="M439.9,248.1c-0.4,0.8-0.8,1.2-1.7,1.2c-1.2,0-2.9,0-4.1-0.4c-7-2.5-14.1-5.4-20.7-8.7
		c-4.1-2.1-30.2-12.8-34.4-15.3c-4.1-2.5-39.4-24.4-43.9-26.9c-4.6-2.5-58.8-36.5-60.9-38.5c-2.1-2.1-1.7-6.2-1.2-9.1
		c0.4-2.9,5-14.1,7.5-12.8c2.5,1.2,52.2,32.3,58.8,36.9s49.7,30.2,55.1,34c5.4,3.7,17,13.7,17,13.7c5.8,4.6,18.2,16.2,18.2,16.2
		L439.9,248.1z"/>
	<path class="st0" d="M67.1,249.3c1.7,0.4,2.9,0.4,4.6-0.4l4.6-2.1c2.5-1.2,5.4-2.5,8.7-3.7c11.6-5,28.2-12.4,31.5-13.7
		c3.3-1.2,30.7-17,39.8-22.8c9.1-5.8,67.9-40.6,74.2-44.3c6.2-3.7,86.6-52.2,92.4-55.5c0,0,31.1-17.8,35.6-20.3
		c4.6-2.5,28.2-14.5,36.5-18.2c7.9-3.7,16.2-6.2,24.4-8.3c3.7-0.8,7.5-1.7,11.2-2.9c3.3-1.7,6.2-3.7,9.1-6.2
		c2.5-3.7,2.9-8.7,0.4-12.4c-3.3-7-12-18.2-16.6-25.3c-2.5-4.1-5.8-8.3-9.1-11.6c-0.4-1.2-2.1-2.1-3.3-1.2c-0.4,0-0.8,0.4-0.8,0.8
		c-3.3,2.5-16.6,16.6-16.6,16.6c-7.9,9.1-16.2,17.8-24.9,25.7c-12,10.8-24.4,20.3-38.1,29c0,0-65.9,40.6-78.3,47.6
		c0,0-27.8-18.2-40.2-25.7c-12.4-7.5-39.8-24-50.5-32.3c-11.2-8.3-22-17.4-31.9-26.5c0,0-13.7-14.1-15.3-16.6
		c-2.5-3.3-5-6.2-8.3-8.7c-3.3-2.1-6.6-4.1-10.4-6.2c0,0-3.3-1.7-9.1,4.1c-6.2,7-12,14.1-17.4,22c-0.8,1.7-1.2,3.7-1.7,5.8
		c-0.8,2.9-1.7,10.8,0.4,14.1c3.3,3.7,7.9,6.2,12.4,7.5s34.8,9.9,47.6,15.7c12.8,5.8,26.9,14.5,36.9,19.9
		c9.9,5.4,33.6,20.3,33.6,20.3c11.2,7.5,32.3,20.3,32.3,20.3s-11.6,7.5-17.4,11.2c-5.8,3.7-47.2,29-53.9,33.1
		c-6.6,4.1-46.4,28.6-49.7,31.1c-3.3,2.5-14.5,11.2-18.2,14.5c-3.7,3.3-16.2,13.3-16.2,13.3l-8.3,8.3
		C64.2,247.6,65.5,248.5,67.1,249.3"/>
	<path class="st1" d="M116,17.7h277.5c-7.9,9.1-16.2,17.8-24.9,25.7c-12,10.8-24.4,20.3-38.1,29c0,0-65.9,40.6-78.3,47.6
		c0,0-27.8-18.2-40.2-25.7c-12.4-7.5-39.8-24-50.5-32.3c-11.2-8.3-22-17.4-31.9-26.5c0,0-13.7-14.1-15.3-16.6
		c-2.5-3.3-5-6.2-8.3-8.7c-3.3-2.1-6.6-4.1-10.4-6.2c-0.4-0.4-0.4-0.8,0-1.2l0,0c0.4-0.4,1.2-0.4,2.1-0.4c3.3,2.1,6.6,4.1,9.9,6.6
		C110.6,11.9,113.5,14.4,116,17.7"/>
	<path class="st1" d="M69.2,29.7c-2.5,3.3-4.6,7-5.8,10.8c-1.7,5.8-2.9,12-1.2,14.5c2.5,2.9,5.4,5.4,8.7,7c2.5,0.8,4.6,2.5,4.6,2.5
		v172.3c0,0,12.4-9.9,16.2-13.3c3.7-3.3,14.5-12.4,18.2-14.5c3.7-2.1,43.5-27.3,49.7-31.1c6.2-3.7,47.6-29.8,53.4-33.6
		c5.8-3.7,17.4-11.2,17.4-11.2S209.2,120.1,198,113c0,0-23.6-14.9-33.6-20.3c-9.9-5.4-23.2-14.1-36-19.9S85.3,58.3,80.8,57.1
		c-4.6-1.2-9.1-4.1-12.4-7.5c-2.1-3.3-1.2-11.2-0.4-14.1C68.4,33.5,68.8,31.8,69.2,29.7"/>
	<path class="st1" d="M443.7,41.3c-2.9-5-9.1-14.1-14.1-21.5c-3.3-5.4-7-10.4-11.6-14.5c-1.2-1.2-2.5-2.5-4.1-3.3
		c3.3,3.7,6.6,7.5,9.1,11.6c4.1,7,12.8,18.2,16.6,25.3c2.5,3.7,2.5,8.7-0.4,12.4c-2.5,2.5-5.8,4.6-9.1,6.2c-3.7,1.2-7,2.5-11.2,2.9
		c-8.3,2.1-16.6,4.6-24.4,8.3c-8.3,3.3-31.9,15.7-36.5,18.2c-4.6,2.5-34.8,20.3-34.8,20.3c-5.8,3.3-86.2,51.8-92.4,55.5
		c-6.2,3.7-65,38.1-74.2,43.9c-9.1,5.8-36.5,21.5-39.8,22.8c-3.3,1.2-19.9,8.7-31.5,13.7c-3.3,1.2-6.6,2.5-8.7,3.7l-4.6,2.1
		c-1.2,0.4-2.9,0.4-4.6,0.4c-0.8,0-1.7-0.4-1.7-1.2c-0.4-0.8-0.8,1.2,0,2.5c0.4,0.8,1.2,1.2,2.1,1.2c2.9-0.4,5.8-0.8,8.7-2.1H430
		c2.9,1.2,5.8,1.7,8.7,2.1c0.8,0,1.7-0.4,2.1-1.2c0.8-1.2,0-3.3,0-2.5c-0.4,0.8-0.8,1.2-1.7,1.2c-1.2,0-2.9,0-4.1-0.4
		c-7-2.5-14.1-5.4-20.7-8.7c-4.1-2.1-30.2-12.8-34.4-15.3c-4.1-2.5-39.4-24.4-43.9-26.9c-4.6-2.5-59.7-36.5-61.7-38.5
		c-2.1-2.1-1.7-6.2-1.2-9.1c0.4-2.9,5-14.1,7.5-12.8c2.5,1.2,52.2,32.3,58.8,36.9s49.7,30.2,55.1,34c5.4,3.7,17,13.7,17,13.7
		c5.8,4.6,18.2,16.2,18.2,16.2V65c2.1-0.4,4.1-1.7,6.2-2.5c5-2.5,9.1-3.3,10.8-7.5S446.6,46.3,443.7,41.3"/>
	<path class="st2" d="M55.1,296.1c2.9,0,3.7-2.1,5-2.1c0.4,0,0.4,0.4,1.2,3.3c2.5,9.5,3.7,11.2,3.7,11.2s-0.8,0.8-1.2,0.8
		s-0.8,0-1.2-0.4c-4.1-7-7.9-9.9-14.1-9.9h-9.5c-1.2,0-2.1,0.8-2.1,5v31.9c0,3.7,0,9.1,0.4,13.3c0,2.1,0.4,3.7,7,3.7
		c2.5,0,2.5,0.4,2.5,1.2s0,1.2-0.8,1.2c-0.8,0-0.8,0-13.3,0s-12.4,0-12.8,0c-0.4,0-0.8-0.4-0.8-1.2s0-1.2,2.5-1.2c6.6,0,7-1.2,7-3.7
		c0-4.1,0.4-9.5,0.4-13.3V304c0-5-0.8-5-3.7-5h-9.1c-6.2,0-10.4,5-13.3,9.9c-0.4,0.4-0.8,0.4-1.2,0.4S0,308.5,0,308.5
		s0.4-0.4,4.1-11.2c0.4-0.8,0.4-3.3,1.2-3.3c1.7,0,2.1,2.1,5.4,2.1H55.1z"/>
	<path class="st2" d="M92.8,322.6c3.7-2.9,8.3-4.6,12.8-5c2.9,0,10.8,0.4,10.8,12.4V350c0,1.2,0.4,2.9,5.4,2.9
		c0.8,0,0.8,0.4,0.8,1.2s0,1.2-1.2,1.2c-2.5,0-4.1,0-8.3,0c-6.6,0-7.9,0-8.7,0c-0.8,0-0.4-0.4-0.4-0.8s0.4-1.2,0.8-1.2l0,0
		c4.1,0,4.6-0.4,4.6-2.9v-14.9c0-7.5-0.8-12.8-9.1-12.8c-3.7,0-7.5,1.7-7.9,2.9v22c0,4.6,0,5.8,3.7,5.8c2.1,0,2.5,0,2.5,1.2
		s0,1.2-0.8,1.2c-0.8,0-1.7,0-7.5,0c-7.9,0-9.9,0-10.8,0c-0.8,0-0.8-0.4-0.8-0.8c0-1.2,0-1.2,3.3-1.2c1.2,0,2.5-0.8,2.9-2.1
		c0.4-0.8,0.4-11.6,0.4-15.3v-29c0-7-0.4-8.3-4.6-8.7c-0.4,0-0.8-0.4-0.8-0.8l0,0c0-0.8,0.4-1.2,0.8-1.2c3.7-0.8,7.9-2.1,11.6-3.3
		c0.4,0,0.4,0.4,0.4,0.8c-0.4,4.1-0.4,7.9-0.4,12L92.8,322.6z"/>
	<path class="st2" d="M147.9,332.1c-0.4,1.7-0.4,3.3-0.4,4.6c0,7.5,6.2,13.3,13.7,13.7c3.7,0.4,7.5-1.7,9.5-5
		c0.4-0.8,0.8-1.2,1.2-1.2c0.4,0,1.2,0.4,1.2,0.8c-2.1,6.2-7.9,10.4-14.1,10.4c-11.6,0-17.8-7.5-17.8-18.6
		c0-11.2,7.9-19.9,16.6-19.9c7.5-0.4,14.1,5.4,14.5,12.8c0,0.4,0,0.8,0,1.2c0,0.8-0.4,0.8-0.8,0.8L147.9,332.1z M162.4,330.1
		c1.7,0,2.9-0.4,2.9-2.9c0.4-3.7-2.1-7.5-6.2-7.9c-0.4,0-0.8,0-1.2,0c-5.8,0-8.3,5-9.1,10.8H162.4z"/>
	<path class="st2" d="M235.7,315.6c0-5.8,0-7.9,0-11.6c0-5-1.7-5.4-7.5-5.4c-0.8,0-0.8-0.8-0.8-1.2s0-1.2,0.8-1.2s7.9,0.4,13.3,0.4
		c4.1,0,7.9-0.4,10.4-0.4c12.4,0,18.6,0.8,25.7,5.4c7,5.4,11.2,13.7,10.8,22.4c0.4,8.3-2.9,16.6-9.1,22.4
		c-6.2,5.8-14.5,8.7-23.2,8.7c-2.1,0-5.4,0-15.3,0c-12,0-12.4,0-13.3,0c-0.8,0-0.8-0.4-0.8-1.2s0-1.2,2.1-1.2c3.7,0,5.8-1.2,5.8-3.7
		c0-4.1,0.4-9.5,0.4-13.3L235.7,315.6z M244,348.7c0,2.9,2.5,3.7,7.9,3.7c14.1,0.4,26.1-10.4,26.9-24.4c0-1.2,0-2.1,0-3.3
		c-0.4-13.3-6.6-19.9-10.8-22.8c-4.6-2.9-10.4-4.1-15.7-3.7c-8.3,0-8.3,0.4-8.3,6.2L244,348.7z"/>
	<path class="st2" d="M314,329.2c0-7.5-0.8-7.9-5-7.9c-0.8,0-1.7,0-1.7-0.8s0-1.7,0.8-1.7s2.1,0.4,5,0.4s6.2,0,7,0
		c0.4,0,0.8,0,0.8,1.2v22.4c0,6.2,2.1,9.5,8.3,9.5c2.9,0,8.3-1.7,8.3-4.1v-21.5c0-4.6-0.8-5-5-5c-1.7,0-2.5,0-2.5-0.8s0-1.7,0.4-1.7
		s2.1,0.4,7,0.4c2.1,0,4.1-0.4,6.2-0.4c0.8,0,1.2,0.4,1.2,1.2s-0.8,6.6-0.8,12.4v14.9c0,1.2,0,2.9,2.1,2.9c1.2,0,2.9-0.4,3.7-0.4
		s0.4,0,0.4,1.7c0,0.4,0,0.8-2.9,1.2c-3.3,0.4-6.2,1.2-9.5,2.1c-0.4,0-0.8-0.4-0.8-1.2c0-0.8,0-2.5,0.4-3.3
		c-3.7,2.9-7.9,4.1-12.4,4.6c-8.3,0-10.4-5.4-10.4-13.7L314,329.2z"/>
	<path class="st2" d="M378.6,340c0,8.7,0.8,12,7.5,12c2.1-0.4,3.7-0.8,5.8-1.7c0.4,0,0.8,0.8,0.8,1.2c-2.5,3.3-6.6,5-11.2,4.6
		c-5,0.4-9.1-3.3-9.5-8.3c0-0.4,0-1.2,0-1.7v-21.5c0-0.8-0.4-1.2-0.8-1.2H367c-0.4,0-0.4-0.4-0.4-0.8c0-0.4,0-0.8,0.4-1.2
		c7.5-5.8,9.1-9.9,10.8-9.9c0.4,0,0.8,0.4,0.8,0.8l0,0c0,1.7-0.4,2.9-0.4,7.5h12.8c0.4,0,0.8,0.4,0.8,1.7s0,1.7-2.1,1.7
		c-0.4,0-4.6-0.4-11.2-0.4V340z"/>
	<path class="st2" d="M437.9,347.9c0.8-0.4,0.8-1.2,1.2-1.2s1.2,0.4,1.2,1.2c0,0.4-0.4,0.8-0.8,1.2c-3.3,4.6-8.7,7-14.5,7
		c-9.5,0-17-7-17-18.6c-0.8-9.9,6.6-18.6,16.6-19.5c0.8,0,1.2,0,2.1,0c11.2,0,13.3,6.2,13.3,7.9c-0.4,2.1-2.1,3.7-4.1,3.7
		c-2.5,0-2.9-0.8-3.7-5.4c-0.4-1.2-0.8-3.7-5-3.7c-5.4,0-11.6,4.1-11.6,17.4c-0.4,7,5,13.7,12,14.1c0.8,0,1.2,0,2.1,0
		C432.9,351.2,435.8,350,437.9,347.9"/>
	<path class="st2" d="M470.2,322.6c3.7-2.9,8.3-4.6,12.8-5c2.9,0,10.8,0.4,10.8,12.4V350c0,1.2,0.4,2.9,5.4,2.9
		c0.8,0,0.8,0.4,0.8,1.2s0,1.2-1.2,1.2c-2.5,0-4.1,0-8.3,0c-6.6,0-7.9,0-8.7,0s-0.4-0.4-0.4-0.8s0.4-1.2,0.8-1.2l0,0
		c4.1,0,4.6-0.4,4.6-2.9v-14.9c0-7.5-0.8-12.8-9.1-12.8c-3.7,0-7.5,1.7-7.9,2.9v22c0,4.6,0,5.8,3.7,5.8c2.1,0,2.5,0,2.5,1.2
		s0,1.2-0.8,1.2s-1.7,0-7.5,0c-7.9,0-9.9,0-10.8,0s-0.8-0.4-0.8-0.8c0-1.2,0-1.2,3.3-1.2c1.2,0,2.5-0.8,2.9-2.1
		c0.4-0.8,0.4-11.6,0.4-15.3v-29c0-7-0.4-8.3-5-8.7c-0.4,0-0.8-0.4-0.8-0.8l0,0c0-0.8,0.4-1.2,0.8-1.2c3.7-0.8,7.9-2.1,11.6-3.3
		c0.4,0,0.4,0.4,0.4,0.8c-0.4,4.1-0.4,7.9-0.4,12L470.2,322.6z"/>
</g>
</svg>
