<?xml version="1.0" encoding="utf-8"?>
<!-- Generator: Adobe Illustrator 26.2.1, SVG Export Plug-In . SVG Version: 6.00 Build 0)  -->
<svg version="1.1" id="Layer_1" xmlns="http://www.w3.org/2000/svg" xmlns:xlink="http://www.w3.org/1999/xlink" x="0px" y="0px"
	 viewBox="0 0 500 248.7" style="enable-background:new 0 0 500 248.7;" xml:space="preserve">
<style type="text/css">
	.st0{fill:#FD8624;}
	.st1{fill:#FFFFFF;}
	.st2{fill:#1F3675;}
</style>
<g id="schild">
</g>
<g id="NL">
	<g>
		<path class="st0" d="M170.3,6.9c0-1-1-1.7-2-1.8C150,2.8,127-0.2,85.1,0C29.7,0,4.4,4.7,2,5C0.8,5.1,0,5.9,0,6.9
			c0,13.5,0,97.8,0,139.9c0,45.4,51.2,76.7,84.4,93.7c0.5,0.3,1,0.3,1.5,0c32.3-17,84.4-48.3,84.4-93.7
			C170.3,146.8,170.3,56.6,170.3,6.9"/>
		<path class="st1" d="M150.1,121.8c-1.4-0.9-3.2-0.5-4.1,0.9c-4.4,6.9-12.4,12.6-17.4,10.1c-7.2-3.6-7.3-12.6-6.6-18.2
			c10.3-3,14.5-9.6,15.4-14.1c0.9-4.7-1.1-8.7-5-10c-4.6-1.5-9.5,2.9-13.1,11.7c-1,2.4-1.8,5-2.4,7.5c-2.8,0.5-6.1,0.7-9.9,0.4
			c-1.6-0.1-3-0.4-4.2-0.8c3-6.8,5.8-15.6,2.8-20c-0.8-1.1-2.6-3-6.3-2.4c-6.4,1.1-10.5,6.3-10.1,13c0.2,4.2,2.3,8.6,6,11.7
			c-0.4,0.7-0.8,1.4-1.2,2.2c-6.4,11.6-12.5,16.6-14.8,16.3c-9.7-0.9-14-8.9-15.7-13.5c-0.5-1.5-1-3-1.3-4.5
			c8.9-3.9,10.9-8.9,11.1-12c0.3-3.9-2.1-7.6-5.7-8.8c-3-1-5.8-0.3-8,1.9c-2.9,3-4.2,8.7-3.8,15.1c-2.4,0.8-5.2,1.5-8.4,2.1
			c-1.1,0.2-2.2,0.3-3.2,0.4c-0.8-8.8-2.4-13.5-5.3-15.9c-1.5-1.2-3.2-1.7-5.1-1.5c-2.7,0.3-4.9,2.2-6.1,5.2
			c-1.7,4.2-0.9,9.2,2,12.8c1.4,1.7,4.1,4.1,9,5c0.5,10.8-0.8,17-2.1,18.1c-0.7-0.2-2.4-1.6-3.8-6.3c-0.5-1.6-2.1-2.4-3.6-2
			c-1.6,0.5-2.4,2.1-2,3.6c2.3,7.7,5.9,9.9,8.3,10.4c-1.4,1.4-2.2,2.9-2.2,4.6c0,1.2,0.3,2.9,2,4.5c1.7,1.7,6.7,6.8,41.5,6.8l2.2,0
			l0.5,0c0.4,0,1.4,0,2.8,0c19,0,42.9-1.3,48.3-7.3c1.4-1.6,1.6-3.2,1.5-4.3c-0.2-2.1-1.1-3.9-2.8-5.5c7.7,1.2,16.7-5.2,21.8-13.2
			C151.9,124.4,151.5,122.6,150.1,121.8 M130.5,96c1.1,0.4,1.3,1.9,1.1,3.3c-0.5,2.4-2.8,6-8.1,8.4C125.7,100.5,129.3,96.1,130.5,96
			 M34.4,107.6c-1.8-2.2-1.9-5.1-1.1-6.9c0.4-0.9,0.9-1.5,1.4-1.5c0.1,0,0.1,0,0.2,0c0.2,0,0.3,0.1,0.5,0.2c1,0.8,2.3,3.4,3.1,10.8
			C36.7,109.6,35.3,108.8,34.4,107.6 M95.1,99.7c-0.2-2.9,1.1-6.3,5.2-6.9c0.2,0,0.3,0,0.4,0c0,0,0.1,0,0.1,0
			c0.7,1.2,0.1,6.1-3,13.4C96.1,104.2,95.2,101.9,95.1,99.7 M63.9,97.3c0.3-0.3,0.7-0.6,1.2-0.6c0.2,0,0.5,0,0.8,0.1
			c0.9,0.3,1.8,1.4,1.7,2.8c-0.1,1.8-1.9,4.1-5.9,6.2C61.7,101.9,62.5,98.7,63.9,97.3 M44.7,116.5c1.2-0.1,2.5-0.2,3.8-0.5
			c3.1-0.6,5.8-1.2,8.2-1.9c0.3,1.5,0.8,3,1.3,4.5c2,5.4,5.1,9.7,8.9,12.7c-8.9,0.8-18,2.3-24.5,4.8C44.7,131.5,45,123.9,44.7,116.5
			 M82.3,150.1c-1.4,0-2.3,0-2.7,0l-0.6,0l-2.2,0c-30,0-36.2-3.8-37.3-5c-0.2-0.2-0.2-0.3-0.3-0.3c0.9-2.8,16.3-8.2,41.4-8.2l0.8,0
			c40.2,0.2,44.5,6.5,44.9,8.3C124.9,146.3,114.6,150.1,82.3,150.1 M88.9,130.8c3.7-3.7,6.9-8.6,9.1-12.2c0.3-0.5,1.2-2,2.2-4
			c1.9,0.7,4.1,1.2,6.4,1.4c3.4,0.2,6.5,0.1,9.3-0.2c-0.2,2-0.2,3.9,0,5.8c0.5,5.7,2.5,10.2,5.8,13.4
			C114.7,132.5,103.9,131.2,88.9,130.8"/>
		<path class="st1" d="M29.2,88.1c1.3,0,2.4-0.8,2.8-2.1c0.3-1,2.8-9.9,0.6-15.7c-1.6-4-4.8-6.4-8.7-6.4c-1.4,0-2.8,0.3-4,0.9
			c-4,2-7,6.7-4.8,12.8c2.5,7.1,12.3,10.1,13.4,10.4C28.7,88,29,88.1,29.2,88.1 M27.2,81.2c-2.5-1.2-5.7-3.1-6.6-5.6
			c-1.3-3.5,0.9-5,1.9-5.5c0.3-0.1,0.8-0.3,1.4-0.3c1.5,0,2.6,0.9,3.3,2.6C28.1,74.7,27.7,78.4,27.2,81.2"/>
		<path class="st1" d="M66.8,82.1c0.5,0.4,1.1,0.6,1.8,0.6c0.5,0,1.1-0.1,1.5-0.4c1-0.6,9.4-6,8.2-13.4c-0.8-5.1-5.1-8.9-10-8.9
			c-3.5,0-7.8,2.2-8.6,8.5C58.9,76,66.5,81.8,66.8,82.1 M65.6,69.1c0.2-1.5,0.8-3.3,2.7-3.3c1.8,0,3.8,1.5,4.2,3.9
			c0.4,2.3-1.9,4.7-3.7,6.3C67.2,74.3,65.3,71.7,65.6,69.1"/>
		<path class="st1" d="M105.1,76.4c0.6,0.5,1.3,0.8,2,0.8c0.7,0,1.4-0.2,1.9-0.7c8.5-7.5,11.2-15.4,7.9-22.9
			c-1.4-3.1-4.8-5.3-8.4-5.3c-4.6,0-8.3,3.2-9.9,8.6C95.5,67.3,104.7,76,105.1,76.4 M104.3,58.5c0.8-2.8,2.4-4.4,4.3-4.4
			c1.3,0,2.6,0.7,3,1.8c0.8,1.7,2.9,6.6-4.3,14.1C105.4,67.5,102.9,63.1,104.3,58.5"/>
		<path class="st1" d="M154.5,69.5c-1.6-2.9-4.4-4.6-7.5-4.6c-1.6,0-3.2,0.5-4.8,1.3c-6.6,3.6-5.5,14.9-5.3,16.2
			c0.1,1.3,1.1,2.3,2.4,2.6c0.8,0.2,1.7,0.2,2.7,0.2c4.4,0,10.1-1.6,12.8-6.2C156.4,76.3,156.3,72.6,154.5,69.5 M149.8,76
			c-1.3,2.1-4.5,3.2-7.2,3.3c0-3,0.6-6.9,2.5-7.9c0.7-0.4,1.4-0.6,2-0.6c1.3,0,2,1,2.4,1.6C150.1,73.6,150.3,75.1,149.8,76"/>
		<g>
			<path class="st0" d="M366.7,129c-0.1,0-5.5-3.6-13.1-10.9c-3-2.9-6.6-6.6-10.5-11.1c6.4-11,10.5-21.4,10.9-22.2
				c0.7-1.8-0.2-3.7-1.9-4.4c-1.8-0.7-3.7,0.2-4.4,1.9c0,0.1-3.5,8.9-9,18.8c0,0.1-0.1,0.1-0.1,0.2c-4-5-8.1-10.8-12.1-17.3
				c-1-1.6-3.1-2.1-4.7-1.1c-1.6,1-2.1,3.1-1.1,4.7c4.7,7.7,9.5,14.3,14.2,20c-5.8,9.2-11.6,15.5-16.9,18.5c-0.1,0-0.1,0.1-0.2,0.1
				c-0.9,0.6-2.6,1.5-3.5,0.9c-1-0.5-1.7-2.4-1.7-3.7c0-0.1,0-0.2,0-0.2c-0.1-1.3,0-18.7,0-30c0-0.9,0-7.2-4.4-11.5
				c-2.7-2.6-6.3-3.9-10.7-3.7c-13.2,0.6-15.3,9.7-15.4,10.1l0,0c-0.5,1.8,0.5,3.6,2.3,4c1.8,0.4,3.7-0.5,4.3-2.3l0,0
				c0.1-0.2,1.4-4.6,9.2-5c2.5-0.1,4.3,0.4,5.6,1.7c1.7,1.7,2.2,4.2,2.3,5.6c-3.4,0.9-11.7,3.2-16.5,5.8c-5.6,3-9.1,9.2-8.8,15.4
				c0.3,5.5,3.4,9.9,8.4,11.9c2.2,0.9,4.3,1.3,6.2,1.3c4.2,0,7.8-1.7,10.6-3.9c0,0.4,0,0.7,0,0.9c0,3.3,1.6,7.7,5.2,9.6
				c1,0.6,2.4,1,4,1c1.8,0,3.9-0.5,6.4-2.1c6.8-3.8,13-11.1,18.1-18.9c12.7,14.3,23.1,21.2,23.7,21.6c0.6,0.4,1.2,0.6,1.9,0.6
				c1.1,0,2.2-0.5,2.9-1.5C368.7,132.2,368.2,130,366.7,129z M305.4,112.7c0,0.1-0.1,0.1-0.1,0.2c-0.1,0.1-5.9,9.4-14.2,6.1
				c-3.4-1.4-4-4.3-4.1-5.9c-0.2-3.1,1.4-7,5.1-9c3.5-1.9,9.7-3.8,13.3-4.8C305.4,103.3,305.4,108.3,305.4,112.7z"/>
			<g>
				<path class="st0" d="M290,11c2.5,0.1,4.5-2.1,4.6-4.7c0.1-2.7-1.9-4.9-4.3-5c-2.5-0.1-4.5,2.1-4.6,4.7
					C285.7,8.7,287.6,10.9,290,11z"/>
				<path class="st0" d="M214.4,68.4c0,1.9,1.5,3.4,3.4,3.4c1.9,0,3.4-1.5,3.4-3.4V45.4c11.2,3.5,18.3,0.8,22.4-2.1
					c5.5-4,8.5-10.8,8.4-19.1C252,15.8,249.2,9.7,244,6c-10.4-7.3-26.6-1.8-27.2-1.5c-1.4,0.5-2.3,1.8-2.3,3.2v26.5
					c-4.8-4.1-7.7-9.3-9-11.9c-0.8-1.7-2.8-2.4-4.5-1.6c-1.7,0.8-2.4,2.8-1.6,4.5c1.8,3.8,6.6,12.3,15.1,17.3V68.4z M221.2,10.2
					c4.2-1.1,13.2-2.6,18.8,1.3c3.4,2.4,5.1,6.7,5.2,12.7c0.1,6.1-1.9,10.9-5.6,13.5c-4.2,3-10.3,3.2-17.7,0.7
					c-0.2-0.1-0.5-0.2-0.7-0.3V10.2z"/>
				<path class="st0" d="M306.6,63.8c-0.8-1.7-2.8-2.5-4.5-1.7l-7.9,3.5c-1.7,0.8-2.5,2.8-1.7,4.5c0.6,1.3,1.8,2,3.1,2
					c0.5,0,0.9-0.1,1.4-0.3l7.9-3.5C306.6,67.6,307.4,65.5,306.6,63.8z"/>
				<path class="st0" d="M362.7,189.9c-1.7,1-3.2,1.3-4.4,0.6c-1.4-0.7-2.4-2.5-2.6-4.4c-0.2-2.6-0.2-15.8-0.1-27.8h8.4
					c1.9,0,3.4-1.5,3.4-3.4s-1.5-3.4-3.4-3.4h-8.3c0-3.9,0.1-7.4,0.1-9.9c0-1.9-1.5-3.4-3.4-3.5c0,0,0,0,0,0c-1.9,0-3.4,1.5-3.4,3.4
					c0,0.5-0.1,4.5-0.1,10h-5.3c-1.9,0-3.4,1.5-3.4,3.4s1.5,3.4,3.4,3.4h5.3c-0.1,11.6-0.1,25.4,0.2,28.4c0.4,4.3,2.8,8.1,6.4,9.8
					c1.4,0.7,2.9,1.1,4.5,1.1c2.1,0,4.4-0.7,6.5-2c1.6-1,2.1-3.1,1.1-4.7C366.5,189.4,364.4,188.9,362.7,189.9z"/>
				<path class="st0" d="M341.2,61.7c1.9,0,3.4-1.6,3.4-3.5l-0.4-29.5c0,0,0-0.1,0-0.1c-0.2-4.5-0.7-16.3-16.2-16.6c0,0-0.1,0-0.1,0
					c-4.5,0-7.7,1.7-9.9,3.6c-0.8-1.1-1.9-2-3.2-2.6c-3.4-1.5-7.6-0.6-11,2.3c-1.4,1.2-1.6,3.4-0.4,4.8c1.2,1.4,3.4,1.6,4.8,0.4
					c1.6-1.3,3.1-1.6,3.9-1.2c0.2,0.1,0.7,0.3,0.7,1.4c-0.1,6.4,0.1,29.6,0.1,30.6c0,1.9,1.5,3.4,3.4,3.4c0,0,0,0,0,0
					c1.9,0,3.4-1.6,3.4-3.4c0-0.2-0.2-17.4-0.1-26.5c0.2-0.2,0.4-0.5,0.5-0.8c0,0,2-4.9,7.9-5c8.4,0.2,9.2,4.2,9.5,10l0.4,29.5
					C337.8,60.2,339.3,61.7,341.2,61.7C341.2,61.7,341.2,61.7,341.2,61.7z"/>
				<path class="st0" d="M361,55.3c2.7,1.4,5.5,2.1,8.4,2.1c4.7,0,9.3-1.8,13-5.4c1.4-1.3,1.4-3.5,0.1-4.8c-1.3-1.4-3.5-1.4-4.8-0.1
					c-3.8,3.6-9.2,4.5-13.5,2.2c-5.7-3-8.2-10.1-6.7-19c1-5.9,3.7-9.5,8.1-10.8c4.9-1.4,10,0.5,10.9,1.6c1.3,1.4,3.4,1.5,4.8,0.3
					c1.4-1.3,1.5-3.4,0.3-4.8c-3-3.4-10.9-5.6-17.9-3.6c-4,1.2-11.1,4.9-13,16.3C349.3,38.4,351.2,50.1,361,55.3z"/>
				<path class="st0" d="M243.5,182.7c-4.6,3.9-10.8,4.6-15.7,1.7c-5.7-3.3-8.2-10.5-6.7-19.2c1-5.7,3.9-9.3,8.4-10.8
					c5.5-1.7,11.4,0.4,12.6,1.6c1.3,1.3,3.5,1.3,4.8,0c1.3-1.3,1.3-3.5,0-4.8c-3.4-3.4-12.1-5.6-19.5-3.3c-7,2.2-11.6,7.9-13.1,16.1
					c-2.1,11.6,1.6,21.5,9.9,26.3c3.1,1.8,6.5,2.7,9.9,2.7c4.8,0,9.6-1.7,13.6-5.1c1.4-1.2,1.6-3.4,0.4-4.8
					C247.1,181.7,245,181.5,243.5,182.7z"/>
				<path class="st0" d="M274.2,147.1c-7.1,0-12.9,3.7-16.2,10.3c-4.4,8.7-3.5,20.8,2,28.2c3.2,4.3,7.7,6.8,13,7.2
					c0.5,0,1,0.1,1.5,0.1c6.8,0,13.1-3.3,15.7-5.8c1.3-1.3,1.3-3.5,0-4.8c-1.3-1.3-3.5-1.3-4.8,0c-1.3,1.3-6.5,4.2-11.8,3.8
					c-3.3-0.2-6-1.7-8-4.5c-1.9-2.5-3-5.9-3.4-9.5h26.5c1.8,0,3.2-1.3,3.4-3.1c0-0.4,0.9-10.4-5-16.8
					C283.8,148.8,279.6,147.1,274.2,147.1z M262.4,165.3c0.3-1.7,0.9-3.3,1.6-4.8c1.5-3,4.5-6.6,10.1-6.6c3.4,0,5.9,0.9,7.7,2.9
					c2.2,2.4,3,5.9,3.2,8.5H262.4z"/>
				<path class="st0" d="M391.5,147.6c-7.2,0-13,3.7-16.3,10.4c-4.2,8.5-3.3,20.4,2.2,27.6c3.2,4.3,7.6,6.7,12.8,7.1
					c0.5,0,0.9,0.1,1.4,0.1c6.5,0,12.7-3.2,15.2-5.7c1.3-1.3,1.4-3.5,0.1-4.8c-1.3-1.3-3.5-1.4-4.8-0.1c-1.5,1.4-6.5,4.1-11.3,3.7
					c-3.2-0.2-5.7-1.7-7.8-4.4c-1.8-2.4-3-5.7-3.3-9.1h25.7c1.7,0,3.2-1.3,3.4-3c0.1-0.4,1.3-10.2-4.3-16.5
					C401.2,149.4,396.9,147.6,391.5,147.6z M379.7,165.5c0.3-1.6,0.8-3.1,1.5-4.4c1.5-3,4.5-6.6,10.2-6.6c3.4,0,5.9,0.9,7.6,2.8
					c2.1,2.3,2.6,5.7,2.7,8.2H379.7z"/>
				<path class="st0" d="M437.6,150.4c-5.8-1.8-10.7-1.5-14.6,0.9v-0.2c0-1.9-1.5-3.4-3.4-3.4s-3.4,1.5-3.4,3.4v35.2
					c0,1.9,1.5,3.4,3.4,3.4s3.4-1.5,3.4-3.4v-23.9c0.2-0.7,1-3.7,3.6-5.3c2.2-1.3,5.2-1.4,9-0.2c1.8,0.6,3.7-0.4,4.3-2.2
					C440.4,152.8,439.4,150.9,437.6,150.4z"/>
				<path class="st0" d="M260.9,56c1.9,0,3.4-1.5,3.4-3.4V25.9c0.1-0.2,0.1-0.5,0.1-0.7c0-1.6,1.9-4.7,4.7-5.9
					c2.2-0.9,4.3-0.4,6.3,1.5c1.4,1.3,3.5,1.2,4.8-0.1c1.3-1.4,1.2-3.5-0.1-4.8c-4-3.8-9-4.8-13.7-2.9c-0.8,0.3-1.5,0.7-2.2,1.2
					c-0.1-1.8-1.6-3.3-3.4-3.3c-1.9,0-3.4,1.5-3.4,3.4v38.3C257.5,54.4,259,56,260.9,56z"/>
				<path class="st0" d="M243.7,88.1c-3.1-3.9-8.1-5.2-11.1-5.3c-4.8-0.2-8.5,0.9-11.3,2.7l0-1.8c0-1.9-1.5-3.4-3.4-3.4c0,0,0,0,0,0
					c-1.9,0-3.4,1.5-3.4,3.4l0.1,45.4c0,1.9,1.5,3.4,3.4,3.4c0,0,0,0,0,0c1.9,0,3.4-1.5,3.4-3.4l-0.1-33.6c0.4-1.2,2.8-6.3,11-5.9
					c0.7,0,6.4,0.4,7.1,5.6c0.6,4.4,0.5,21.4,0.4,27.6c0,1.9,1.5,3.4,3.4,3.5c0,0,0,0,0.1,0c1.9,0,3.4-1.5,3.4-3.4
					c0-0.8,0.3-18.8-0.2-26.5c0.5-1.6,3-7.1,10.9-6.7c0.7,0,6.4,0.4,7.1,5.6c0.6,4.4,0.5,21.4,0.4,27.6c0,1.9,1.5,3.4,3.4,3.5
					c0,0,0,0,0.1,0c1.9,0,3.4-1.5,3.4-3.4c0-0.9,0.3-22.8-0.4-28.6c-1.2-8.9-9.4-11.4-13.7-11.5C251.1,82.6,246.6,85.1,243.7,88.1z"
					/>
				<path class="st0" d="M293.9,42.8c0-0.2,0-0.3,0-0.5c-0.1-1.2,0-15,0-23.5c0-1.9-1.5-3.4-3.4-3.4c0,0,0,0,0,0
					c-1.9,0-3.4,1.5-3.4,3.4c0,5-0.1,21,0,23.7c-0.2,3.2,1.1,7.3,4.4,9.5c0.9,0.6,2.5,1.3,4.6,1.3c1.6,0,3.4-0.4,5.5-1.5
					c1.7-0.9,2.3-3,1.4-4.6c-0.9-1.7-3-2.3-4.6-1.4c-1,0.5-2.3,1-3.2,0.5C294.4,45.7,293.8,44.2,293.9,42.8z"/>
				<path class="st0" d="M329.2,151.5c-2.9-2.9-7-4.5-11.6-4.4c-4.1,0.1-7.3,1.2-9.7,2.5l0-0.2c0-1.9-1.5-3.4-3.4-3.4c0,0,0,0,0,0
					c-1.9,0-3.4,1.5-3.4,3.4l-0.1,35.6c0,1.9,1.5,3.4,3.4,3.4c0,0,0,0,0,0c1.9,0,3.4-1.5,3.4-3.4l0.1-26.5c0,0,0,0,0,0
					c0.1-0.2,2.8-4.5,9.8-4.6c3.4,0,5.5,1.3,6.7,2.4c1.3,1.3,2.1,3,2.1,4.7c-0.1,6.6,0,28.2,0,28.4c0,1.9,1.5,3.4,3.4,3.4
					c0,0,0,0,0,0c1.9,0,3.4-1.5,3.4-3.4c0-0.2-0.1-21.8,0-28.3C333.3,157.6,331.8,154.1,329.2,151.5z"/>
				<path class="st0" d="M460.5,42.3c-0.8-10.8-7.9-12.9-13.1-14.4c-3.5-1-6.5-1.9-8.6-4.7c-1.4-2-1.8-4.8-0.8-6.7
					c1.2-2.3,3.8-2.8,5.8-2.9c4.8-0.1,7,2,7.1,2.1l0.3,0.3c1.3,1.1,3.2,1.1,4.5,0l0,0c1.4-1.2,1.5-3.2,0.4-4.6l-0.1-0.2
					c-0.4-0.5-4.2-4.5-12.3-4.4c-5.4,0.1-9.7,2.5-11.8,6.7c-2.1,4.3-1.6,9.7,1.4,13.8c3.4,4.8,8.3,6.2,12.2,7.3
					c5.1,1.5,7.7,2.2,8.2,8.3c0.2,2.6-0.5,4.7-2,6.4c-1.7,1.8-4.5,3-7.2,3c0,0,0,0,0,0c-5.7,0-10.1-3.5-10.1-8.1
					c0-2-1.6-3.5-3.6-3.4c-1.8,0.1-3.2,1.7-3.2,3.6c0.2,8.4,7.4,14.7,16.9,14.7c0,0,0,0,0,0c4.6,0,9.2-1.9,12.2-5.1
					C459.5,50.8,460.9,46.8,460.5,42.3z"/>
				<path class="st0" d="M481.9,59.2C482,59.2,482,59.2,481.9,59.2c4.6,0,9.1-1.9,12.1-5.1c2.9-3,4.2-7.1,4-11.6
					c-0.7-10.9-7.3-13.1-12.6-14.9c-3.4-1.1-6.3-2.1-8.3-5c-1.5-2.1-1.9-4.8-1-6.7c1.1-2.2,3.7-2.8,5.7-2.9c3-0.1,5.4,0.6,6.8,2.2
					c1.1,1.2,1.4,2.4,1.4,2.5c0.4,1.8,2.1,3,4,2.7c1.9-0.3,3.1-2.1,2.7-4c-0.7-3.7-4.8-10.7-15.3-10.2c-7.3,0.3-10.4,4.4-11.5,6.7
					c-2,4.2-1.4,9.5,1.6,13.7c3.3,4.6,8,6.2,11.7,7.5c4.9,1.7,7.6,2.6,8,8.9c0.2,2.6-0.5,4.8-2.1,6.5c-1.7,1.8-4.4,2.9-7.1,2.9
					c0,0,0,0,0,0c-5.7,0-10.1-3.5-10.1-8.1c0-1.9-1.5-3.4-3.4-3.4c-1.9,0-3.4,1.6-3.4,3.4C465.1,52.8,472.4,59.2,481.9,59.2z"/>
				<path class="st0" d="M406.2,57.7c0.3,0,0.5,0,0.8,0c5.9,0,11.8-2.5,14.1-6.1c1-1.6,0.6-3.7-1-4.7c-1.6-1-3.7-0.6-4.7,1
					c-0.8,1.2-4.4,3.2-8.9,3c-3.1-0.1-7.3-1.3-10-6.2c-1-1.9-1.8-4.2-2.3-6.7h25.4c1.8,0,3.2-1.4,3.4-3.1c0-0.5,0.9-11.5-5.1-18.1
					c-2.9-3.2-6.7-4.8-11.5-4.8c0,0-0.1,0-0.1,0c-9.2,0-13.9,4.6-16.3,8.4c-4.9,8.2-3.4,20.3,0.5,27.5
					C393.7,54,399.3,57.4,406.2,57.7z M395.8,23.9c2.1-3.4,5.5-5.1,10.4-5.1c0,0,0.1,0,0.1,0c2.8,0,4.9,0.8,6.5,2.6
					c2.3,2.5,3.1,6.7,3.3,9.8h-22.4C394,28.5,394.6,26,395.8,23.9z"/>
				<path class="st0" d="M449.7,94.6c-1.8-8.8-9.6-11.7-13.5-12c0,0-0.1,0-0.1,0c-6.8-0.3-11.4,2.1-14.2,5.1
					c-3.3-3.9-8.2-5.1-11.2-5.1c0,0,0,0,0,0c-4.5-0.2-7.9,0.8-10.4,2.3l0-1.2c0-1.9-1.5-3.4-3.4-3.4c0,0,0,0,0,0
					c-1.9,0-3.4,1.5-3.4,3.4l0.1,46.8c0,1.9,1.5,3.4,3.4,3.4c0,0,0,0,0,0c1.9,0,3.4-1.5,3.4-3.4l-0.1-34.7c0.1-0.2,0.1-0.4,0.2-0.6
					c0.2-1,1.6-6.2,10-5.8c0.1,0,0.1,0,0.2,0c0.3,0,6.1,0,7.4,5.6c0.7,11.4,0.4,27.1,0.4,27.3c0,1.9,1.4,3.4,3.3,3.5
					c0,0,0.1,0,0.1,0c1.8,0,3.4-1.5,3.4-3.3c0-0.6,0.4-15.4-0.3-27c0.2-0.5,2.1-6.4,10.7-6c0.5,0.1,6.1,0.8,7.3,6.5
					c1.1,7.2,0.7,26.8,0.7,27c0,1.9,1.5,3.4,3.3,3.5c0,0,0,0,0.1,0c1.9,0,3.4-1.5,3.4-3.3c0-0.8,0.4-20.6-0.8-28.3
					C449.7,94.7,449.7,94.6,449.7,94.6z"/>
				<path class="st0" d="M499.8,132.3c-0.6-1.6-2.4-2.5-4.1-2.1c-1.7,0.4-2.4,0-2.9-0.3c-1.5-1.1-2.1-4-2.2-5V94.1
					c0.1-1.3,0.3-7.9-4-12.3c-1.8-1.9-5.1-4-10.6-3.7c-13.5,0.6-15.6,10.2-15.7,10.6l0,0c-0.4,1.3,0.3,2.6,1.6,2.9l1.7,0.4
					c1.5,0.4,3-0.5,3.4-1.9l0,0.1c0.1-0.5,1.5-4.9,9.4-5.3c2.4-0.1,4.2,0.4,5.4,1.6c2,2.1,2.2,5.9,2.1,7.2c0,0.1,0,0.2,0,0.3v1.7
					c-3.2,0.6-8.6,1.7-14.5,3.7c-5.3,1.8-9.1,6.2-10.2,11.8c-1.1,5.3,0.6,10.6,4.3,13.9c2.6,2.3,6.3,3.5,10.1,3.5
					c2.6,0,5.2-0.5,7.8-1.6c0.9-0.4,1.7-0.8,2.5-1.2c0.2,1.7,1.1,6.8,4.9,9.6c1.2,0.9,3.1,1.8,5.7,1.8c0.9,0,1.8-0.1,2.8-0.3
					C499.3,136.4,500.5,134.3,499.8,132.3z M478.8,120.7c-3.4,1.4-8.1,1.7-10.9-0.8c-1.9-1.7-2.7-4.5-2.1-7.4
					c0.6-3.2,2.8-5.6,5.7-6.6c4.8-1.6,9.3-2.7,12.3-3.3v13.3c0,0.1,0,0.1,0,0.2C483.7,117.4,481.9,119.4,478.8,120.7z"/>
				<path class="st0" d="M378.5,122.8c2,0,4.4-0.7,7-3c1.4-1.2,1.6-3.4,0.3-4.8c-1.2-1.4-3.4-1.6-4.8-0.3c-0.9,0.8-2.1,1.6-3.2,1.2
					c-1.1-0.4-2-2.1-2.2-3.8c-0.5-5.3,0-28.4,0-28.6c0-1.9-1.5-3.4-3.3-3.5c-1.9,0-3.4,1.5-3.5,3.3c0,1-0.5,23.7,0,29.4
					c0.4,4.4,2.9,8.1,6.4,9.5C376.1,122.5,377.2,122.8,378.5,122.8z"/>
				<path class="st0" d="M367.4,69.1c-0.1,2.7,1.9,4.9,4.3,5c2.5,0.1,4.5-2.1,4.6-4.7c0.1-2.7-1.9-4.9-4.3-5
					C369.5,64.3,367.5,66.4,367.4,69.1z"/>
			</g>
		</g>
		<g>
			<path class="st2" d="M222.5,241.1c-1.4,0-2.7-0.4-4.1-1.2v6.3c0,0.8-0.2,1.5-0.5,1.8c-0.3,0.4-0.8,0.6-1.6,0.6h-1.4l-0.2-0.2
				v-25.4l0.2-0.2h1.2c1.2,0,1.9,0.6,2.2,1.8c1.4-1.4,3.1-2.2,5-2.2c1,0,1.8,0.2,2.6,0.7c0.8,0.4,1.4,1.1,1.9,1.9
				c0.5,0.8,0.9,1.8,1.2,2.9c0.3,1.1,0.4,2.4,0.4,3.9c0,1.4-0.2,2.7-0.5,3.9c-0.4,1.2-0.9,2.1-1.5,2.9c-0.6,0.8-1.4,1.4-2.2,1.8
				C224.3,240.8,223.4,241.1,222.5,241.1z M222.3,225.5c-1.6,0-2.9,0.8-4,2.4v8.9c0.6,0.4,1.2,0.7,1.8,1c0.6,0.2,1.2,0.3,1.7,0.3
				c1.1,0,2-0.6,2.7-1.7c0.7-1.1,1-2.7,1-4.8c0-2.1-0.3-3.7-0.9-4.6C224.1,226,223.3,225.5,222.3,225.5z"/>
			<path class="st2" d="M247.2,233h-10.6c0.1,1.7,0.4,2.9,1.1,3.8c0.6,0.9,1.7,1.3,3.2,1.3c0.7,0,1.5-0.1,2.3-0.3
				c0.8-0.2,1.7-0.6,2.6-1c0.6,0.6,1,1.4,1.2,2.4c-1.9,1.4-4.2,2-6.8,2c-1.4,0-2.5-0.2-3.5-0.7c-0.9-0.5-1.7-1.1-2.3-2
				c-0.6-0.8-1-1.9-1.3-3c-0.3-1.2-0.4-2.4-0.4-3.8c0-1.3,0.2-2.6,0.5-3.7c0.3-1.1,0.8-2.1,1.4-2.9c0.6-0.8,1.4-1.5,2.3-1.9
				c0.9-0.5,2-0.7,3.1-0.7c1.2,0,2.2,0.2,3.1,0.6c0.9,0.4,1.7,0.9,2.3,1.6c0.6,0.7,1.1,1.5,1.4,2.5c0.3,1,0.5,2,0.5,3.1
				c0,0.5,0,1-0.1,1.4C247.4,232,247.3,232.5,247.2,233z M240.3,225.2c-2.3,0-3.5,1.7-3.7,5.1h7.3v-0.5c0-1.4-0.3-2.5-0.9-3.3
				C242.4,225.6,241.5,225.2,240.3,225.2z"/>
			<path class="st2" d="M257.9,222.6c1.3,0,2.7,0.4,4.1,1.2v-9.4l0.3-0.2h1.4c0.7,0,1.3,0.2,1.6,0.5c0.3,0.4,0.4,1,0.4,1.8v19.1
				c0,1.7,0.3,2.8,1,3.4c-0.1,0.3-0.3,0.7-0.5,1.1c-0.3,0.4-0.5,0.7-0.8,0.8c-1.4-0.3-2.3-1-2.9-2.2c-1.4,1.6-3.2,2.5-5.2,2.5
				c-2,0-3.6-0.8-4.7-2.5c-1.1-1.7-1.6-3.9-1.6-6.9c0-1.5,0.2-2.8,0.6-3.9c0.4-1.1,0.9-2.1,1.5-2.9c0.6-0.8,1.4-1.4,2.2-1.8
				C256.1,222.8,257,222.6,257.9,222.6z M258.1,238.1c1.6,0,2.9-0.8,3.9-2.3v-9c-1.4-0.9-2.5-1.3-3.5-1.3c-1.1,0-2,0.5-2.7,1.6
				c-0.7,1.1-1,2.7-1,4.8c0,2.1,0.3,3.6,0.9,4.6C256.4,237.6,257.1,238.1,258.1,238.1z"/>
			<path class="st2" d="M275.7,226v14.8c-0.5,0.1-1.1,0.1-1.9,0.1c-0.8,0-1.4,0-1.9-0.1v-13.2c0-0.7-0.1-1.2-0.4-1.4
				c-0.2-0.3-0.7-0.4-1.2-0.4h-0.4c-0.1-0.5-0.2-1-0.2-1.3c0-0.4,0.1-0.8,0.2-1.4c0.8-0.1,1.6-0.1,2.3-0.1h0.5
				c0.9,0,1.6,0.3,2.2,0.9C275.4,224.2,275.7,225,275.7,226z M271.1,219.5c-0.2-0.4-0.3-1-0.3-1.6c0-1,0.2-1.6,0.5-1.8
				c0.4-0.2,1-0.3,1.8-0.3c1,0,1.6,0.1,1.8,0.4c0.3,0.2,0.4,0.8,0.4,1.7c0,0.9-0.2,1.4-0.4,1.7c-0.3,0.2-0.9,0.4-1.8,0.4
				C272.2,220,271.5,219.8,271.1,219.5z"/>
			<path class="st2" d="M295.2,239.1c-0.3,0.9-0.8,1.5-1.4,1.9c-1.4-0.3-2.4-1-2.9-2.2c-1.7,1.6-3.5,2.5-5.3,2.5
				c-0.9,0-1.7-0.1-2.4-0.4c-0.7-0.3-1.3-0.7-1.7-1.2c-0.5-0.5-0.8-1.1-1-1.7c-0.2-0.6-0.3-1.3-0.3-2c0-2,0.6-3.5,1.9-4.5
				c1.3-1,2.9-1.5,5-1.5c0.6,0,1.2,0,1.8,0.1c0.6,0,1.1,0.1,1.7,0.2v-1.4c0-2.2-1-3.2-3-3.2c-1.4,0-3.3,0.5-5.7,1.4
				c-0.7-0.6-1.1-1.5-1.1-2.7c2.5-1.1,5-1.7,7.5-1.7c1.9,0,3.3,0.5,4.4,1.5c1,1,1.6,2.5,1.6,4.5v7.4
				C294.2,237.4,294.6,238.5,295.2,239.1z M286.3,238.2c1.5,0,3-0.7,4.3-2.2v-3.4c-0.5,0-1-0.1-1.5-0.1c-0.5,0-1.1,0-1.7,0
				c-1.1,0-2,0.3-2.6,0.8c-0.6,0.5-0.9,1.3-0.9,2.2c0,0.9,0.2,1.6,0.7,2C284.9,238,285.5,238.2,286.3,238.2z"/>
			<path class="st2" d="M308.3,222.8c0.1,0.4,0.2,0.9,0.2,1.4c0,0.5-0.1,1-0.2,1.4l-4.4-0.1v10.8c0,1.1,0.5,1.6,1.5,1.6h2.5
				c0.2,0.5,0.3,1.1,0.3,1.6c0,0.5,0,0.9-0.1,1.1c-1.4,0.2-2.7,0.3-4.1,0.3c-2.5,0-3.8-1.2-3.8-3.7v-11.6l-2.7,0
				c-0.1-0.4-0.1-0.9-0.1-1.4c0-0.5,0-1,0.1-1.4l2.7,0.1v-3.2c0-0.9,0.1-1.5,0.4-1.8c0.3-0.4,0.8-0.5,1.6-0.5h1.4l0.3,0.3v5.4
				L308.3,222.8z"/>
			<path class="st2" d="M311.3,224.6c0.2-0.9,0.7-1.6,1.4-2c1.7,0.4,2.8,1.4,3.3,3.2c1-2.1,2.5-3.2,4.7-3.2c0.6,0,1.2,0.1,1.9,0.2
				c0,1.4-0.3,2.6-0.9,3.5c-0.2-0.1-0.7-0.1-1.5-0.2c-1.6,0-2.9,0.9-3.9,2.7v11.8c-0.5,0.1-1.1,0.1-1.9,0.1c-0.8,0-1.4,0-1.9-0.1
				v-12.4C312.6,226.7,312.1,225.4,311.3,224.6z"/>
			<path class="st2" d="M330.6,226v14.8c-0.5,0.1-1.1,0.1-1.9,0.1s-1.4,0-1.9-0.1v-13.2c0-0.7-0.1-1.2-0.4-1.4
				c-0.2-0.3-0.7-0.4-1.2-0.4h-0.4c-0.1-0.5-0.2-1-0.2-1.3c0-0.4,0.1-0.8,0.2-1.4c0.8-0.1,1.6-0.1,2.3-0.1h0.5
				c0.9,0,1.6,0.3,2.2,0.9C330.3,224.2,330.6,225,330.6,226z M326.1,219.5c-0.2-0.4-0.3-1-0.3-1.6c0-1,0.2-1.6,0.5-1.8
				c0.4-0.2,1-0.3,1.8-0.3c1,0,1.6,0.1,1.8,0.4c0.3,0.2,0.4,0.8,0.4,1.7c0,0.9-0.2,1.4-0.4,1.7c-0.3,0.2-0.9,0.4-1.8,0.4
				C327.1,220,326.5,219.8,326.1,219.5z"/>
			<path class="st2" d="M345.7,229.8v-0.4c0-2.7-1.1-4.1-3.2-4.1c-1.2,0-2,0.6-2.7,1.7c-0.6,1.1-0.9,2.8-0.9,5
				c0,4.1,1.4,6.2,4.1,6.2c1.3,0,2.8-0.6,4.4-1.8c0.3,0.2,0.7,0.5,1,0.9c0.3,0.4,0.5,0.9,0.6,1.3c-1.8,1.8-3.9,2.7-6.5,2.7
				c-1.3,0-2.4-0.2-3.3-0.7c-0.9-0.5-1.7-1.1-2.3-2c-0.6-0.8-1.1-1.9-1.4-3c-0.3-1.2-0.5-2.5-0.5-3.9c0-1.5,0.2-2.8,0.6-3.9
				c0.4-1.1,1-2.1,1.6-2.9c0.7-0.8,1.5-1.4,2.4-1.8c0.9-0.4,1.9-0.6,2.9-0.6c1,0,2,0.2,2.8,0.5c0.8,0.3,1.5,0.7,2.1,1.2
				c0.6,0.5,1,1.1,1.3,1.8c0.3,0.7,0.5,1.3,0.5,2c0,1.4-0.6,2.1-1.9,2.1C346.7,229.9,346.1,229.9,345.7,229.8z"/>
			<path class="st2" d="M373.4,239.2c-1.3,1.3-3.1,2-5.2,2c-1.3,0-2.4-0.2-3.3-0.7c-1-0.4-1.8-1.1-2.4-1.9c-0.7-0.8-1.2-1.8-1.5-3
				c-0.4-1.1-0.5-2.4-0.5-3.9c0-1.4,0.2-2.7,0.5-3.8c0.3-1.2,0.9-2.2,1.5-3c0.7-0.8,1.5-1.5,2.4-1.9c1-0.4,2.1-0.7,3.3-0.7
				c1.3,0,2.4,0.2,3.3,0.7c1,0.4,1.8,1.1,2.4,1.9c0.7,0.8,1.2,1.8,1.5,3c0.3,1.2,0.5,2.4,0.5,3.8C376,235,375.1,237.5,373.4,239.2z
				 M368.2,225.2c-2.6,0-3.9,2.2-3.9,6.5c0,4.4,1.3,6.5,3.9,6.5c2.6,0,4-2.2,4-6.5C372.1,227.4,370.8,225.2,368.2,225.2z"/>
			<path class="st2" d="M394.8,228.5v8.4c0,1.4,0.2,2.5,0.6,3.3c-0.6,0.5-1.4,0.8-2.2,0.8c-0.8,0-1.4-0.2-1.7-0.6
				c-0.3-0.4-0.5-1-0.5-1.8v-9.2c0-1.3-0.2-2.1-0.5-2.7c-0.3-0.5-0.9-0.8-1.7-0.8c-0.8,0-1.6,0.2-2.4,0.6c-0.8,0.4-1.6,0.9-2.2,1.6
				v12.6c-0.4,0.1-1,0.1-1.8,0.1c-0.4,0-0.7,0-1,0c-0.3,0-0.6-0.1-0.8-0.1v-17.8l0.2-0.2h1.4c1.3,0,2,0.7,2.1,2.2
				c1.8-1.6,3.7-2.4,5.8-2.4c1.6,0,2.8,0.5,3.6,1.6C394.4,225.2,394.8,226.7,394.8,228.5z"/>
			<path class="st2" d="M409.9,229.8v-0.4c0-2.7-1.1-4.1-3.2-4.1c-1.2,0-2,0.6-2.7,1.7c-0.6,1.1-0.9,2.8-0.9,5
				c0,4.1,1.4,6.2,4.1,6.2c1.3,0,2.8-0.6,4.4-1.8c0.3,0.2,0.7,0.5,1,0.9c0.3,0.4,0.5,0.9,0.6,1.3c-1.8,1.8-3.9,2.7-6.5,2.7
				c-1.3,0-2.4-0.2-3.3-0.7c-0.9-0.5-1.7-1.1-2.3-2c-0.6-0.8-1.1-1.9-1.4-3c-0.3-1.2-0.5-2.5-0.5-3.9c0-1.5,0.2-2.8,0.6-3.9
				c0.4-1.1,1-2.1,1.6-2.9c0.7-0.8,1.5-1.4,2.4-1.8c0.9-0.4,1.9-0.6,2.9-0.6c1,0,2,0.2,2.8,0.5c0.8,0.3,1.5,0.7,2.1,1.2
				c0.6,0.5,1,1.1,1.3,1.8c0.3,0.7,0.5,1.3,0.5,2c0,1.4-0.6,2.1-1.9,2.1C410.8,229.9,410.3,229.9,409.9,229.8z"/>
			<path class="st2" d="M429.2,239.2c-1.3,1.3-3.1,2-5.2,2c-1.3,0-2.4-0.2-3.3-0.7c-1-0.4-1.8-1.1-2.4-1.9c-0.7-0.8-1.2-1.8-1.5-3
				c-0.3-1.1-0.5-2.4-0.5-3.9c0-1.4,0.2-2.7,0.5-3.8c0.3-1.2,0.9-2.2,1.5-3c0.7-0.8,1.5-1.5,2.4-1.9c1-0.4,2.1-0.7,3.3-0.7
				c1.3,0,2.4,0.2,3.3,0.7c1,0.4,1.8,1.1,2.4,1.9c0.7,0.8,1.2,1.8,1.5,3c0.3,1.2,0.5,2.4,0.5,3.8C431.8,235,430.9,237.5,429.2,239.2
				z M424,225.2c-2.6,0-3.9,2.2-3.9,6.5c0,4.4,1.3,6.5,3.9,6.5c2.6,0,4-2.2,4-6.5C428,227.4,426.6,225.2,424,225.2z"/>
			<path class="st2" d="M441.4,237.9h1.3c0.2,0.6,0.3,1.1,0.3,1.6c0,0.5,0,0.8-0.1,1.1c-1,0.2-2,0.3-3.1,0.3c-2.4,0-3.6-1.2-3.6-3.7
				v-22.8l0.3-0.2h1.4c0.7,0,1.3,0.2,1.6,0.6c0.3,0.4,0.5,1,0.5,1.8v19.8C440,237.4,440.4,237.9,441.4,237.9z"/>
			<path class="st2" d="M458.6,239.2c-1.3,1.3-3.1,2-5.2,2c-1.3,0-2.4-0.2-3.3-0.7c-1-0.4-1.8-1.1-2.4-1.9c-0.7-0.8-1.2-1.8-1.5-3
				c-0.4-1.1-0.5-2.4-0.5-3.9c0-1.4,0.2-2.7,0.5-3.8c0.3-1.2,0.9-2.2,1.5-3c0.7-0.8,1.5-1.5,2.4-1.9c1-0.4,2.1-0.7,3.3-0.7
				c1.3,0,2.4,0.2,3.3,0.7c1,0.4,1.8,1.1,2.4,1.9c0.7,0.8,1.2,1.8,1.5,3c0.3,1.2,0.5,2.4,0.5,3.8C461.2,235,460.3,237.5,458.6,239.2
				z M453.4,225.2c-2.6,0-3.9,2.2-3.9,6.5c0,4.4,1.3,6.5,3.9,6.5c2.6,0,4-2.2,4-6.5C457.3,227.4,456,225.2,453.4,225.2z"/>
			<path class="st2" d="M476.4,224.3c0.5-0.8,1.4-1.4,2.5-1.7c0.3,0.2,0.6,0.5,0.9,0.9c0.3,0.4,0.5,0.7,0.5,1c-0.7,0.7-1,1.8-1,3.4
				v10.7c0,1.9-0.2,3.4-0.5,4.7c-0.3,1.3-0.8,2.3-1.4,3.1c-0.6,0.8-1.4,1.4-2.4,1.7c-1,0.3-2.1,0.5-3.5,0.5c-2.1,0-4.2-0.4-6.3-1.2
				c0-1.2,0.3-2.1,1-2.8c1.5,0.7,3.2,1.1,4.9,1.1c1.7,0,2.9-0.4,3.5-1.3c0.6-0.9,0.9-2.1,0.9-3.7v-1.7c-1.4,1.3-3.1,2-5,2
				c-1.9,0-3.4-0.8-4.5-2.5c-1.1-1.7-1.6-4-1.6-6.9c0-1.5,0.2-2.8,0.5-3.9c0.4-1.1,0.9-2.1,1.5-2.9c0.7-0.8,1.4-1.4,2.2-1.8
				c0.8-0.4,1.7-0.6,2.7-0.6C473.4,222.4,475,223,476.4,224.3z M475.6,235.8V227c-1.2-1.1-2.4-1.6-3.5-1.6c-1.2,0-2.1,0.5-2.8,1.6
				c-0.7,1.1-1,2.7-1,4.8c0,2.1,0.3,3.7,0.9,4.6c0.6,1,1.4,1.5,2.4,1.5C473,237.9,474.4,237.2,475.6,235.8z"/>
			<path class="st2" d="M498.6,223.2l-4.8,17c-0.4,1.5-0.9,2.8-1.4,3.9c-0.5,1.1-1,1.9-1.6,2.6c-0.6,0.7-1.3,1.2-2.2,1.5
				c-0.8,0.3-1.8,0.5-2.9,0.5c-0.2,0-0.5,0-0.9,0c-0.4,0-0.8-0.1-1.2-0.1c-0.4-0.1-0.7-0.1-1-0.2c-0.3-0.1-0.4-0.2-0.4-0.3
				c0-0.4,0.1-0.9,0.2-1.4c0.1-0.5,0.3-0.9,0.6-1.2c0.8,0.3,1.7,0.5,2.8,0.5c1,0,1.9-0.4,2.5-1.1c0.7-0.7,1.2-1.9,1.7-3.4l0.1-0.4
				c-0.8,0-1.4-0.2-1.8-0.5c-0.4-0.3-0.8-0.8-1-1.5l-4.8-15.8c0.9-0.4,1.6-0.5,2.3-0.5c0.9,0,1.6,0.6,1.9,1.7l2.5,8.3
				c0.1,0.4,0.3,1,0.5,1.9c0.2,0.9,0.5,2,0.8,3.4c0,0.2,0.1,0.3,0.3,0.3l4-15.3c0.2,0,0.4-0.1,0.7-0.1c0.3,0,0.5,0,0.9,0
				c0.3,0,0.7,0,1,0.1c0.3,0,0.7,0.1,1,0.2L498.6,223.2z"/>
		</g>
	</g>
</g>
</svg>
