<?xml version="1.0" encoding="utf-8"?>
<!-- Generator: Adobe Illustrator 26.2.1, SVG Export Plug-In . SVG Version: 6.00 Build 0)  -->
<svg version="1.1" id="Layer_1" xmlns="http://www.w3.org/2000/svg" xmlns:xlink="http://www.w3.org/1999/xlink" x="0px" y="0px"
	 viewBox="0 0 500 133.3" style="enable-background:new 0 0 500 133.3;" xml:space="preserve">
<style type="text/css">
	.st0{fill:#004FFF;}
</style>
<g>
	<g>
		<g>
			<path d="M23.9,121.4C8.7,121.4,0,115.2,0,105.5c0-10,9.5-15.9,22.8-15.9s22,5.9,22,15.9v1.6H6.9c0.8,5.9,6.8,9.1,17,9.1
				c7.7,0,13-1.8,18.5-5.5l0.2,0.1v6.1C37,119.9,31.4,121.4,23.9,121.4z M7.3,102.4H38c-1.5-5.1-7.3-7.7-15.1-7.7
				C14.7,94.7,9,97.6,7.3,102.4z"/>
			<path d="M51.5,120.8V81.8h6.6v39.1H51.5z"/>
			<path d="M88.7,121.4c-15.1,0-23.9-6.3-23.9-15.9c0-10,9.5-15.9,22.8-15.9s22,5.9,22,15.9v1.6H71.7c0.8,5.9,6.8,9.1,17,9.1
				c7.7,0,13-1.8,18.5-5.5l0.2,0.1v6.1C101.8,119.9,96.2,121.4,88.7,121.4z M72.1,102.4h30.7c-1.5-5.1-7.3-7.7-15.1-7.7
				C79.5,94.7,73.8,97.6,72.1,102.4z"/>
			<path d="M112,90.4l0.1-0.1h7.2l16.4,25.5L152,90.3h7.1l0.1,0.1l-19.9,30.4H132L112,90.4z"/>
			<path d="M197.7,114.7c-4.1,4.3-9.9,6.7-19.1,6.7c-11.2,0-17.1-3.4-17.1-9.7c0-6.3,6.1-9.1,20.7-9.8l15.4-0.7
				c-0.1-4.2-4.4-6.5-12.9-6.5c-7.4,0-13.9,1.8-19.9,5.5l-0.1-0.1v-5.9c6.4-3.2,12.9-4.7,20.3-4.7c12.2,0,19,3.9,19,11.8v19.4h-6.4
				L197.7,114.7L197.7,114.7z M197.7,106.2v-0.6l-16.8,0.9c-8.6,0.4-12.6,2-12.6,5c0,3.2,3.4,4.9,10.5,4.9
				C190.3,116.4,197.7,112.2,197.7,106.2z"/>
			<path d="M230.1,121.4c-9.2,0-13.9-4.3-13.9-13.4V95.1h-7.2v-4.7h7.2v-6.9h6.6v6.9h10v4.7h-10v12.4c0,6.6,2.4,8.7,8.9,8.7h0.9
				l0.3,0.1v4.9C232,121.4,231,121.4,230.1,121.4z"/>
			<path d="M260.1,121.4c-15.1,0-23.9-6.3-23.9-15.9c0-10,9.5-15.9,22.8-15.9s22,5.9,22,15.9v1.6h-37.9c0.8,5.9,6.8,9.1,17,9.1
				c7.7,0,13-1.8,18.5-5.5l0.2,0.1v6.1C273.3,119.9,267.7,121.4,260.1,121.4z M243.5,102.4h30.7c-1.5-5.1-7.3-7.7-15.1-7.7
				C250.9,94.7,245.2,97.6,243.5,102.4z"/>
			<path d="M325.4,121.4c-13.7,0-22.9-6-22.9-15.9s9.2-15.9,22.9-15.9c13.8,0,23,5.9,23,15.9S339.2,121.4,325.4,121.4z M325.4,116.4
				c9.9,0,16.2-3.7,16.2-10.9c0-7.1-6.4-10.8-16.2-10.8c-9.7,0-16.1,3.7-16.1,10.8C309.4,112.7,315.7,116.4,325.4,116.4z"/>
			<path d="M361.7,115.9v17.4H355V90.2h6.6v5.3c3.9-3.9,10.1-5.9,17.7-5.9c13,0,21.6,5.8,21.6,16s-8.6,15.8-21.7,15.8
				C371.5,121.4,365.4,119.5,361.7,115.9z M378,116.4c10.3,0,16.2-4,16.2-10.9s-5.9-10.8-16.2-10.8c-10.4,0-16.3,3.9-16.3,10.8
				S367.5,116.4,378,116.4z"/>
			<path d="M429.5,121.4c-15.1,0-23.9-6.3-23.9-15.9c0-10,9.5-15.9,22.8-15.9c13.3,0,22,5.9,22,15.9v1.6h-37.9
				c0.8,5.9,6.8,9.1,17,9.1c7.7,0,13-1.8,18.5-5.5l0.2,0.1v6.1C442.7,119.9,437.1,121.4,429.5,121.4z M413,102.4h30.7
				c-1.5-5.1-7.3-7.7-15.1-7.7C420.3,94.7,414.7,97.6,413,102.4z"/>
			<path d="M463.8,120.8h-6.6V90.3h6.6v6.4c3.6-4.7,9.6-7.1,17.4-7.1c12.1,0,18.8,5.5,18.8,16.3v14.9h-6.6v-13.4
				c0-8.9-4.2-12.8-13.4-12.8c-10.3,0-16.3,4.9-16.3,15.9L463.8,120.8L463.8,120.8z"/>
		</g>
	</g>
	<polygon class="st0" points="355,0 64.8,75 355,47.9 	"/>
</g>
</svg>
