<?xml version="1.0" encoding="utf-8"?>
<!-- Generator: Adobe Illustrator 26.3.1, SVG Export Plug-In . SVG Version: 6.00 Build 0)  -->
<svg version="1.1" id="Layer_1" xmlns="http://www.w3.org/2000/svg" xmlns:xlink="http://www.w3.org/1999/xlink" x="0px" y="0px"
	 viewBox="0 0 531.6 101.2" style="enable-background:new 0 0 531.6 101.2;" xml:space="preserve">
<style type="text/css">
	.st0{fill:#BDCD00;}
	.st1{fill:#313E44;}
</style>
<g>
	<g>
		<path class="st0" d="M54.4,101.2c12.5-0.9,23.8-6.3,32.2-14.7c-10.3-3-19-5.2-37.4-12.2C50.1,83.4,51.7,92.5,54.4,101.2z"/>
		<path class="st0" d="M97.5,70.4c2.5-5.9,3.9-12.2,4-18.9c0.1-5.9-0.8-11.6-2.6-16.9c-23.5,5.9-39.5,10.7-50.3,14.5
			c0,0,6.7,4.2,21.1,10.6C77,62.9,86.8,66.6,97.5,70.4z"/>
		<path class="st0" d="M90.3,18.9C81.7,8.2,68.9,1,54.3,0c0,0.1-2.5,10.2-4.3,25.4C73.7,18.1,90.2,18.8,90.3,18.9z"/>
		<path class="st0" d="M34.1,2.7c0,0-9.5,20.7-8.6,47.8c0.3,9.3,0.6,15.2,3.7,29.2c1.9,8.5,5,16.1,7.2,19.6
			C15.1,93.1-0.4,73.1,0,49.8C0.4,27.9,14.6,9.4,34.1,2.7z"/>
	</g>
	<g>
		<g>
			<path class="st1" d="M472.4,62.5h-57.4c2.2,0-4.2,0.3-4.2-3.6V42.5c0-2,1.6-3.6,3.6-3.6h54.8c2,0,2.4,1,0.8,2.3l-26.1,16.5
				l28.5,0L472.4,62.5L472.4,62.5z M453.6,46c1.5-1.3,1.1-2.3-0.8-2.3h-30c-2,0-3.6,1.6-3.6,3.6v7c0,2,1.6,3.6,3.6,3.6h6.1
				c6.2,0,5.4,0,9.2-2.3L453.6,46z"/>
		</g>
		<g>
			<path class="st1" d="M329.8,62.5h-57.4c2.2,0-4.2,0.3-4.2-3.6V42.5c0-2,1.6-3.6,3.6-3.6h54.8c2,0,2.4,1,0.8,2.3l-26.1,16.5
				l28.5,0L329.8,62.5L329.8,62.5z M311,46c1.5-1.3,1.1-2.3-0.8-2.3h-30c-2,0-3.6,1.6-3.6,3.6v7c0,2,1.6,3.6,3.6,3.6h6.1
				c6.2,0,5.4,0,9.2-2.3L311,46z"/>
		</g>
		<g>
			<path class="st1" d="M402.9,41.3l-20.6,18.8c-3,2.6-6.5,2.4-6.5,2.4H364c-2,0-4.8-1.1-6.3-2.4l-23.3-21.2h10l2.4,2.4l16.2,14.2
				c1.5,1.3,4.3,2.4,6.3,2.4h1.1c2,0,4.8-1.1,6.3-2.4l18.8-16.5h9.6L402.9,41.3z"/>
			<path class="st1" d="M379.6,62.5C379.6,62.5,379.5,62.5,379.6,62.5"/>
		</g>
		<g>
			<path class="st1" d="M485.2,62.5H484 M531.6,43.6h-39.1c-2,0-3.6,1.6-3.6,3.6v15.3h-8.4v-20c0-2,1.6-3.6,3.6-3.6h47.6V43.6z"/>
		</g>
		<g>
			<path class="st1" d="M259.6,62.5H212c-2,0-3.6-1.6-3.6-3.6v-20h8.4v15.3c0,2,1.6,3.6,3.6,3.6h39.1V62.5z"/>
		</g>
		<path class="st1" d="M179.6,57.8c-2,0-4.8-1.1-6.3-2.4l-5-4.5l19.7-12l-10.8,0l-27.8,16.7c-1.7,1-3.1,0.2-3.1-1.8v-15h-8.4v20
			c0,2,1.6,3.6,3.6,3.6h3.9c2.9,0,5-0.8,6.7-1.9l11.3-6.8l6.7,6.2c1.5,1.4,4.3,2.5,6.2,2.5h23.6v-4.7L179.6,57.8L179.6,57.8z"/>
		<path class="st1" d="M342,37.2"/>
	</g>
</g>
</svg>
